<?xml version="1.0" encoding="UTF-8"?>
<svg xmlns="http://www.w3.org/2000/svg" width="1280" height="1280" viewBox="0 0 1280 1280">
  <defs>
    <linearGradient id="bg" x1="50" y1="30" x2="1240" y2="780" gradientUnits="userSpaceOnUse">
      <stop stop-color="#EBEAFF"/>
      <stop offset="1" stop-color="#E5F3FF"/>
    </linearGradient>
    <linearGradient id="brand" x1="0" y1="0" x2="1" y2="1">
      <stop stop-color="#7777F2"/>
      <stop offset="1" stop-color="#44449E"/>
    </linearGradient>
    <filter id="shadow" x="-20%" y="-20%" width="150%" height="160%">
      <feDropShadow dx="0" dy="22" stdDeviation="28" flood-color="#323856" flood-opacity="0.20"/>
    </filter>
    <filter id="popupShadow" x="-30%" y="-20%" width="170%" height="160%">
      <feDropShadow dx="0" dy="18" stdDeviation="20" flood-color="#282854" flood-opacity="0.28"/>
    </filter>
  </defs>
  <rect width="1280" height="800" fill="url(#bg)"/>
  <circle cx="85" cy="722" r="210" fill="#7777E8" opacity="0.08"/>
  <circle cx="1210" cy="76" r="170" fill="#7FC7FF" opacity="0.11"/>
  <text x="64" y="62" fill="#22224B" font-size="30" font-weight="700">今天该复习什么，一眼就知道</text>
  <text x="64" y="92" fill="#6F758B" font-size="15">到期、逾期和待评估，打开扩展图标即可查看</text>
  <g transform="translate(1128 35)">
    <rect width="42" height="42" rx="13" fill="url(#brand)"/>
    <rect x="11" y="9" width="20" height="24" rx="5" fill="#FFFFFF"/>
    <circle cx="29" cy="29" r="7" fill="#FF9D4D"/>
    <path d="M26 29l2 2 5-6" fill="none" stroke="#fff" stroke-width="2.4" stroke-linecap="round" stroke-linejoin="round"/>
    <text x="-12" y="67" text-anchor="middle" fill="#535976" font-size="12">小刷记</text>
  </g>

  <g filter="url(#shadow)">
    <rect x="50" y="124" width="1180" height="620" rx="20" fill="#FFFFFF"/>
  </g>
  <path d="M70 124h1140a20 20 0 0 1 20 20v43H50v-43a20 20 0 0 1 20-20z" fill="#F8F9FC"/>
  <circle cx="78" cy="154" r="6" fill="#FF756A"/>
  <circle cx="99" cy="154" r="6" fill="#FFC45B"/>
  <circle cx="120" cy="154" r="6" fill="#5BCB88"/>
  <rect x="189" y="137" width="636" height="34" rx="17" fill="#FFFFFF" stroke="#E4E7EF"/>
  <text x="218" y="158" fill="#7A8093" font-size="12">leetcode.cn/problems/reverse-linked-list/</text>
  <circle cx="1170" cy="154" r="17" fill="url(#brand)"/>
  <rect x="1162" y="146" width="15" height="17" rx="4" fill="#fff"/>
  <circle cx="1175" cy="166" r="5" fill="#FF9D4D"/>
  <rect x="1185" y="141" width="22" height="18" rx="9" fill="#F06C5C"/>
  <text x="1196" y="154" text-anchor="middle" fill="#fff" font-size="10" font-weight="700">7</text>

  <rect x="50" y="187" width="1180" height="557" fill="#F7F8FB"/>
  <rect x="50" y="187" width="720" height="557" fill="#FFFFFF"/>
  <text x="82" y="233" fill="#202438" font-size="22" font-weight="700">206. 反转链表</text>
  <rect x="82" y="254" width="45" height="22" rx="11" fill="#E6F7EF"/>
  <text x="104" y="269" text-anchor="middle" fill="#2AA66E" font-size="11">简单</text>
  <text x="82" y="318" fill="#5B6276" font-size="14">给你单链表的头节点，请你反转链表，并返回反转后的链表。</text>
  <rect x="82" y="354" width="630" height="164" rx="12" fill="#F5F6F9"/>
  <circle cx="163" cy="436" r="25" fill="#FFFFFF" stroke="#8D93AA" stroke-width="2"/>
  <circle cx="273" cy="436" r="25" fill="#FFFFFF" stroke="#8D93AA" stroke-width="2"/>
  <circle cx="383" cy="436" r="25" fill="#FFFFFF" stroke="#8D93AA" stroke-width="2"/>
  <circle cx="493" cy="436" r="25" fill="#FFFFFF" stroke="#8D93AA" stroke-width="2"/>
  <circle cx="603" cy="436" r="25" fill="#FFFFFF" stroke="#8D93AA" stroke-width="2"/>
  <text x="163" y="442" text-anchor="middle" fill="#50566B" font-size="14">1</text>
  <text x="273" y="442" text-anchor="middle" fill="#50566B" font-size="14">2</text>
  <text x="383" y="442" text-anchor="middle" fill="#50566B" font-size="14">3</text>
  <text x="493" y="442" text-anchor="middle" fill="#50566B" font-size="14">4</text>
  <text x="603" y="442" text-anchor="middle" fill="#50566B" font-size="14">5</text>
  <path d="M188 436h58m-8-7l8 7-8 7M298 436h58m-8-7l8 7-8 7M408 436h58m-8-7l8 7-8 7M518 436h58m-8-7l8 7-8 7" fill="none" stroke="#8D93AA" stroke-width="2"/>
  <rect x="82" y="557" width="292" height="18" rx="9" fill="#ECEEF3"/>
  <rect x="82" y="590" width="560" height="14" rx="7" fill="#F0F1F5"/>
  <rect x="82" y="620" width="494" height="14" rx="7" fill="#F0F1F5"/>
  <rect x="82" y="650" width="530" height="14" rx="7" fill="#F0F1F5"/>
  <rect x="770" y="187" width="460" height="557" fill="#1B1E29"/>
  <rect x="794" y="216" width="260" height="14" rx="7" fill="#454A5A"/>
  <rect x="794" y="254" width="356" height="12" rx="6" fill="#303544"/>
  <rect x="818" y="284" width="298" height="12" rx="6" fill="#303544"/>
  <rect x="818" y="314" width="336" height="12" rx="6" fill="#303544"/>
  <rect x="842" y="344" width="240" height="12" rx="6" fill="#303544"/>
  <rect x="794" y="374" width="170" height="12" rx="6" fill="#303544"/>
  <rect x="50" y="187" width="1180" height="557" fill="#EDF0F7" opacity="0.35"/>

  <g filter="url(#popupShadow)">
    <rect x="806" y="174" width="370" height="530" rx="22" fill="#FFFFFF"/>
  </g>
  <rect x="806" y="174" width="370" height="72" rx="22" fill="#F8F8FF"/>
  <rect x="806" y="224" width="370" height="22" fill="#F8F8FF"/>
  <g transform="translate(828 191)">
    <rect width="36" height="36" rx="11" fill="url(#brand)"/>
    <rect x="9" y="8" width="18" height="20" rx="5" fill="#FFFFFF"/>
    <circle cx="25" cy="25" r="6" fill="#FF9D4D"/>
  </g>
  <text x="877" y="208" fill="#292955" font-size="15" font-weight="700">小刷记</text>
  <text x="877" y="227" fill="#83889A" font-size="11">7 月 17 日 · 星期五</text>
  <circle cx="1144" cy="210" r="16" fill="#ECECFA"/>
  <path d="M1139 210h10m-5-5v10" stroke="#6363BE" stroke-width="1.7"/>

  <rect x="838" y="266" width="154" height="92" rx="14" fill="#EEEEFF"/>
  <text x="856" y="292" fill="#69699F" font-size="11">今日 / 逾期</text>
  <text x="856" y="333" fill="#4444A0" font-size="34" font-weight="700">5</text>
  <text x="885" y="331" fill="#6B7090" font-size="12">道题</text>
  <rect x="1010" y="266" width="154" height="92" rx="14" fill="#FFF5E8"/>
  <text x="1028" y="292" fill="#9B7444" font-size="11">待评估</text>
  <text x="1028" y="333" fill="#C27424" font-size="34" font-weight="700">2</text>
  <text x="1055" y="331" fill="#8E765C" font-size="12">条记录</text>
  <text x="838" y="394" fill="#33384C" font-size="13" font-weight="700">接下来</text>
  <g>
    <circle cx="852" cy="429" r="13" fill="#E5E5FF"/>
    <text x="852" y="434" text-anchor="middle" fill="#5555B8" font-size="10">1</text>
    <text x="876" y="426" fill="#353A50" font-size="13" font-weight="700">两数之和</text>
    <text x="876" y="445" fill="#8A90A2" font-size="10">逾期 2 天 · 简单</text>
    <rect x="1108" y="418" width="56" height="24" rx="12" fill="#F0F0FF"/>
    <text x="1136" y="434" text-anchor="middle" fill="#5959BE" font-size="10">去复习</text>
  </g>
  <line x1="838" y1="462" x2="1164" y2="462" stroke="#ECEEF4"/>
  <g>
    <circle cx="852" cy="493" r="13" fill="#EAF8F2"/>
    <text x="852" y="498" text-anchor="middle" fill="#37946C" font-size="10">2</text>
    <text x="876" y="490" fill="#353A50" font-size="13" font-weight="700">反转链表</text>
    <text x="876" y="509" fill="#8A90A2" font-size="10">今天到期 · 简单</text>
    <rect x="1108" y="482" width="56" height="24" rx="12" fill="#F0F0FF"/>
    <text x="1136" y="498" text-anchor="middle" fill="#5959BE" font-size="10">去复习</text>
  </g>
  <line x1="838" y1="526" x2="1164" y2="526" stroke="#ECEEF4"/>
  <g>
    <circle cx="852" cy="557" r="13" fill="#FFF1DF"/>
    <text x="852" y="562" text-anchor="middle" fill="#C07629" font-size="10">3</text>
    <text x="876" y="554" fill="#353A50" font-size="13" font-weight="700">最长回文子串</text>
    <text x="876" y="573" fill="#8A90A2" font-size="10">今天到期 · 中等</text>
    <rect x="1108" y="546" width="56" height="24" rx="12" fill="#F0F0FF"/>
    <text x="1136" y="562" text-anchor="middle" fill="#5959BE" font-size="10">去复习</text>
  </g>
  <rect x="838" y="614" width="326" height="44" rx="12" fill="#5B5BD2"/>
  <text x="1001" y="641" text-anchor="middle" fill="#FFFFFF" font-size="13" font-weight="700">打开完整面板</text>
  <text x="1001" y="683" text-anchor="middle" fill="#9297A8" font-size="10">所有复习数据仅保存在本机</text>

  <g transform="translate(93 236)">
    <rect width="248" height="58" rx="16" fill="#FFFFFF" stroke="#DCDFF0"/>
    <circle cx="31" cy="29" r="16" fill="#EEEEFF"/>
    <path d="M24 29h14m-4-5l5 5-5 5" fill="none" stroke="#5F5FC6" stroke-width="2"/>
    <text x="58" y="25" fill="#343950" font-size="13" font-weight="700">角标自动汇总</text>
    <text x="58" y="43" fill="#808698" font-size="10">红色到期 · 橙色待评估</text>
  </g>
</svg>
